<svg width="20" height="20" viewBox="0 0 20 20" fill="none" xmlns="http://www.w3.org/2000/svg">
<rect width="20" height="20" rx="2" fill="#77E17E"/>
<path d="M6.318 4.687C7.234 4.271 8.536 4 10 4C11.464 4 12.766 4.27 13.682 4.687C14.644 5.125 15 5.627 15 6C15 6.374 14.644 6.875 13.682 7.313C12.766 7.729 11.464 8 10 8C8.536 8 7.234 7.73 6.318 7.313C5.356 6.875 5 6.373 5 6C5 5.626 5.356 5.125 6.318 4.687ZM15 7.698V9C15 9.374 14.644 9.875 13.682 10.313C12.766 10.729 11.464 11 10 11C8.536 11 7.234 10.73 6.318 10.313C5.356 9.875 5 9.373 5 9V7.698C5.271 7.9 5.58 8.076 5.904 8.223C6.978 8.711 8.427 9 10 9C11.573 9 13.022 8.711 14.096 8.223C14.4148 8.08007 14.7178 7.90411 15 7.698ZM16 6C16 4.993 15.125 4.245 14.096 3.777C13.022 3.289 11.573 3 10 3C8.427 3 6.978 3.289 5.904 3.777C4.875 4.245 4 4.993 4 6V15C4 16.007 4.875 16.755 5.904 17.223C6.978 17.71 8.427 18 10 18C11.573 18 13.022 17.711 14.096 17.223C15.125 16.755 16 16.007 16 15V6ZM15 10.698V12C15 12.374 14.644 12.875 13.682 13.313C12.766 13.729 11.464 14 10 14C8.536 14 7.234 13.73 6.318 13.313C5.356 12.875 5 12.373 5 12V10.698C5.271 10.9 5.58 11.076 5.904 11.223C6.978 11.71 8.427 12 10 12C11.573 12 13.022 11.711 14.096 11.223C14.4148 11.0801 14.7178 10.9041 15 10.698ZM15 13.698V15C15 15.374 14.644 15.875 13.682 16.313C12.766 16.729 11.464 17 10 17C8.536 17 7.234 16.73 6.318 16.313C5.356 15.875 5 15.373 5 15V13.698C5.271 13.9 5.58 14.076 5.904 14.223C6.978 14.71 8.427 15 10 15C11.573 15 13.022 14.711 14.096 14.223C14.42 14.076 14.729 13.9 15 13.698Z" fill="white"/>
</svg>
