<svg width="20" height="20" viewBox="0 0 20 20" fill="none" xmlns="http://www.w3.org/2000/svg">
<rect width="20" height="20" rx="2" fill="#FF4043"/>
<path d="M9.9377 4.01742C9.9573 4.00667 9.97935 4.00116 10.0017 4.00142C10.0237 4.00133 10.0454 4.00683 10.0647 4.01742C10.0874 4.03129 10.1061 4.05096 10.1187 4.07442L16.9757 15.7414C17.0117 15.8014 17.0107 15.8654 16.9777 15.9244C16.964 15.9479 16.9456 15.9683 16.9237 15.9844C16.9044 15.9976 16.881 16.0037 16.8577 16.0014H3.1457C3.12239 16.0037 3.09903 15.9976 3.0797 15.9844C3.05781 15.9683 3.03944 15.9479 3.0257 15.9244C3.00964 15.8965 3.00136 15.8648 3.00171 15.8326C3.00206 15.8005 3.01104 15.769 3.0277 15.7414L9.8837 4.07442C9.89632 4.05096 9.91496 4.03129 9.9377 4.01742ZM10.9817 3.56742C10.8827 3.39498 10.74 3.25172 10.5679 3.15209C10.3958 3.05246 10.2005 3 10.0017 3C9.80287 3 9.60756 3.05246 9.43549 3.15209C9.26343 3.25172 9.12069 3.39498 9.0217 3.56742L2.1647 15.2344C1.7077 16.0124 2.2557 17.0014 3.1447 17.0014H16.8577C17.7467 17.0014 18.2957 16.0114 17.8377 15.2344L10.9817 3.56742Z" fill="white"/>
<path d="M9.00146 14.0011C9.00146 13.8698 9.02733 13.7397 9.07759 13.6184C9.12784 13.4971 9.2015 13.3868 9.29436 13.294C9.38722 13.2011 9.49746 13.1275 9.61878 13.0772C9.74011 13.027 9.87014 13.0011 10.0015 13.0011C10.1328 13.0011 10.2628 13.027 10.3841 13.0772C10.5055 13.1275 10.6157 13.2011 10.7086 13.294C10.8014 13.3868 10.8751 13.4971 10.9253 13.6184C10.9756 13.7397 11.0015 13.8698 11.0015 14.0011C11.0015 14.2663 10.8961 14.5207 10.7086 14.7082C10.521 14.8957 10.2667 15.0011 10.0015 15.0011C9.73625 15.0011 9.48189 14.8957 9.29436 14.7082C9.10682 14.5207 9.00146 14.2663 9.00146 14.0011ZM9.09946 7.99609C9.08615 7.86993 9.0995 7.74239 9.13867 7.62172C9.17783 7.50106 9.24192 7.38998 9.32678 7.29568C9.41165 7.20139 9.51539 7.12599 9.63128 7.07438C9.74716 7.02276 9.87261 6.99609 9.99946 6.99609C10.1263 6.99609 10.2518 7.02276 10.3677 7.07438C10.4835 7.12599 10.5873 7.20139 10.6721 7.29568C10.757 7.38998 10.8211 7.50106 10.8603 7.62172C10.8994 7.74239 10.9128 7.86993 10.8995 7.99609L10.5495 11.5031C10.5377 11.6409 10.4747 11.7692 10.3728 11.8627C10.271 11.9563 10.1377 12.0081 9.99946 12.0081C9.86119 12.0081 9.72796 11.9563 9.62611 11.8627C9.52426 11.7692 9.46122 11.6409 9.44946 11.5031L9.09946 7.99609Z" fill="white"/>
</svg>
