<svg width="20" height="20" viewBox="0 0 20 20" fill="none" xmlns="http://www.w3.org/2000/svg">
<rect width="20" height="20" rx="2" fill="#3C6DD9"/>
<path d="M7.33801 3.59C6.38555 3.85232 5.4396 4.13774 4.50101 4.446C4.41523 4.47366 4.33898 4.52491 4.28098 4.59388C4.22297 4.66285 4.18555 4.74676 4.17301 4.836C3.61901 8.993 4.89901 12.026 6.42601 14.024C7.07224 14.8786 7.84317 15.6314 8.71301 16.257C9.05901 16.501 9.36501 16.677 9.60601 16.79C9.72601 16.8467 9.82367 16.886 9.89901 16.908C9.93222 16.9181 9.96593 16.9264 10 16.933C10.0337 16.9264 10.0671 16.918 10.1 16.908C10.176 16.8853 10.274 16.846 10.394 16.79C10.634 16.677 10.941 16.5 11.287 16.257C12.1568 15.6314 12.9278 14.8786 13.574 14.024C15.101 12.027 16.381 8.993 15.827 4.836C15.8145 4.74676 15.777 4.66285 15.719 4.59388C15.661 4.52491 15.5848 4.47366 15.499 4.446C14.848 4.233 13.749 3.886 12.662 3.591C11.552 3.29 10.531 3.067 10 3.067C9.47001 3.067 8.44801 3.289 7.33801 3.59ZM7.07201 2.56C8.15701 2.265 9.31001 2 10 2C10.69 2 11.843 2.265 12.928 2.56C14.038 2.86 15.157 3.215 15.815 3.43C16.0901 3.52085 16.334 3.68747 16.5187 3.9107C16.7034 4.13394 16.8213 4.40474 16.859 4.692C17.455 9.169 16.072 12.487 14.394 14.682C13.6822 15.6207 12.8338 16.4476 11.877 17.135C11.5465 17.3734 11.1959 17.5826 10.829 17.76C10.549 17.892 10.248 18 10 18C9.75201 18 9.45201 17.892 9.17101 17.76C8.80415 17.5826 8.45348 17.3734 8.12301 17.135C7.16626 16.4476 6.31785 15.6207 5.60601 14.682C3.92801 12.487 2.545 9.169 3.14101 4.692C3.17869 4.40474 3.29665 4.13394 3.48132 3.9107C3.666 3.68747 3.9099 3.52085 4.18501 3.43C5.14026 3.11701 6.10287 2.82693 7.07201 2.56Z" fill="white"/>
</svg>
